<svg xmlns="http://www.w3.org/2000/svg" xmlns:xlink="http://www.w3.org/1999/xlink"><defs><symbol viewBox="0 0 64 64" fill="none" id="arrow-circle-orange">
<circle cx="32" cy="32" r="26" fill="white" />
<path fill-rule="evenodd" clip-rule="evenodd" d="M32.002 5.86719C17.5684 5.86644 5.86719 17.5671 5.86719 32.0005C5.86719 46.4339 17.5684 58.1347 32.002 58.1339C46.4345 58.133 58.1337 46.4331 58.1337 32.0005C58.1337 17.5679 46.4345 5.86791 32.002 5.86719ZM44.8006 32.0005C44.8006 33.1787 43.8455 34.1339 42.6673 34.1339H26.4842L30.8423 38.492C31.6756 39.3251 31.6756 40.676 30.8423 41.5091C30.0092 42.3421 28.6585 42.3421 27.8255 41.5091L19.8254 33.5091C19.4253 33.1091 19.2005 32.5664 19.2005 32.0005C19.2005 31.4347 19.4253 30.892 19.8254 30.492L27.8255 22.492C28.6585 21.6589 30.0092 21.6589 30.8423 22.492C31.6756 23.3251 31.6756 24.6759 30.8423 25.509L26.4842 29.8672H42.6673C43.8455 29.8672 44.8006 30.8224 44.8006 32.0005Z" fill="#F06B42" />
</symbol></defs></svg>